<svg id="Layer_1" data-name="Layer 1" xmlns="http://www.w3.org/2000/svg" viewBox="0 0 122.88 116.61">
    <defs>
        <style>
            .cls-4{fill-rule:evenodd;fill:#c72b20}.cls-5{fill:#1a1a1a}
        </style>
    </defs>
    <path d="M111.36 116.61H11.52A11.57 11.57 0 0 1 0 105.09V40h122.88v65.07a11.56 11.56 0 0 1-11.52 11.52Z" style="fill:gray"/>
    <path d="M12.75 112.92h97.38a9.1 9.1 0 0 0 9.06-9.06V44.94H3.69v58.92a9.08 9.08 0 0 0 9.06 9.06Z" style="fill-rule:evenodd;fill:#fff"/>
    <path d="M11.52 6.67h99.84a11.57 11.57 0 0 1 11.52 11.52v26.75H0V18.19A11.56 11.56 0 0 1 11.52 6.67Zm24.79 9.75A9.31 9.31 0 1 1 27 25.73a9.31 9.31 0 0 1 9.31-9.31Zm49.79 0a9.31 9.31 0 1 1-9.31 9.31 9.31 9.31 0 0 1 9.31-9.31Z" style="fill:#ef4136;fill-rule:evenodd"/>
    <path class="cls-4" d="M86.1 14.63a11.11 11.11 0 1 1-7.85 3.26l.11-.1a11.06 11.06 0 0 1 7.74-3.16Zm0 1.79a9.31 9.31 0 1 1-9.31 9.31 9.31 9.31 0 0 1 9.31-9.31ZM36.31 14.63a11.11 11.11 0 1 1-7.85 3.26l.11-.1a11.08 11.08 0 0 1 7.74-3.16Zm0 1.79A9.31 9.31 0 1 1 27 25.73a9.31 9.31 0 0 1 9.31-9.31Z"/>
    <path class="cls-5" d="M80.54 4.56C80.54 2 83 0 86.1 0s5.56 2 5.56 4.56v21.21c0 2.51-2.48 4.56-5.56 4.56s-5.56-2-5.56-4.56V4.56ZM30.75 4.56C30.75 2 33.24 0 36.31 0s5.56 2 5.56 4.56v21.21c0 2.51-2.48 4.56-5.56 4.56s-5.56-2-5.56-4.56V4.56ZM47.25 72.24h-6.36v20.39h-8.77V72.24h-6.36v-7h21.49v7Zm11.18-7v20.55h3.12a4.47 4.47 0 0 0 2.28-.41c.41-.28.61-.92.61-1.91V65.22h8.77v15.4a30.2 30.2 0 0 1-.48 6 8.69 8.69 0 0 1-1.8 3.86 6.81 6.81 0 0 1-3.59 2.2 23.43 23.43 0 0 1-5.92.61 23.1 23.1 0 0 1-5.9-.61 6.82 6.82 0 0 1-3.58-2.2 8.78 8.78 0 0 1-1.79-3.86 29.36 29.36 0 0 1-.49-6v-15.4Zm36.71 17.04h-8.77v3.34h10.74v7H77.6v-27.4h19.29l-1.09 7h-9.43v3.69h8.77v6.35Z"/>
</svg>
